<svg width="26" height="26" viewBox="0 0 26 26" fill="none" xmlns="http://www.w3.org/2000/svg">
<path d="M24.5766 10.9691H24.578H15.0312V1.44024C15.0312 0.656012 14.3962 0.000305176 13.612 0.000305176H12.3904C11.6064 0.000305176 10.9686 0.656012 10.9686 1.44024V10.9691H1.42197C0.638163 10.9691 0 11.6033 0 12.3877V13.6163C0 14.4001 0.637951 15.0315 1.42197 15.0315H10.9688V24.5948C10.9688 25.3786 11.6064 26.0001 12.3906 26.0001H13.6122C14.3964 26.0001 15.0314 25.3784 15.0314 24.5948V15.0315H24.5766C25.3608 15.0315 26 14.3999 26 13.6163V12.3877C26 11.6033 25.3608 10.9691 24.5766 10.9691Z" fill="white"/>
</svg>
