<svg width="13" height="23" viewBox="0 0 13 23" fill="none" xmlns="http://www.w3.org/2000/svg">
<path d="M12.5235 10.3365C12.8286 10.6451 13 11.0636 13 11.5C13 11.9364 12.8286 12.3549 12.5235 12.6635L2.75822 22.538C2.45126 22.8378 2.04014 23.0037 1.6134 22.9999C1.18666 22.9962 0.778456 22.8231 0.476696 22.518C0.174936 22.2128 0.00376987 21.8001 6.19888e-05 21.3686C-0.00364685 20.937 0.1604 20.5213 0.456871 20.2109L9.07146 11.5L0.456871 2.78907C0.1604 2.47867 -0.00364685 2.06295 6.19888e-05 1.63145C0.00376987 1.19994 0.174936 0.787163 0.476696 0.482028C0.778456 0.176894 1.18666 0.00381191 1.6134 6.22133e-05C2.04014 -0.00368749 2.45126 0.162195 2.75822 0.461981L12.5235 10.3365Z" fill="white"/>
</svg>
