<svg width="40" height="40" viewBox="0 0 40 40" fill="none" xmlns="http://www.w3.org/2000/svg">
<path d="M34 10C34 8.93913 33.5786 7.92172 32.8284 7.17157C32.0783 6.42143 31.0609 6 30 6H28V0H24V6H16V0H12V6H10C8.93913 6 7.92172 6.42143 7.17157 7.17157C6.42143 7.92172 6 8.93913 6 10V12H0V16H6V24H0V28H6V30C6 31.0609 6.42143 32.0783 7.17157 32.8284C7.92172 33.5786 8.93913 34 10 34H12V40H16V34H24V40H28V34H30C31.0609 34 32.0783 33.5786 32.8284 32.8284C33.5786 32.0783 34 31.0609 34 30V28H40V24H34V16H40V12H34V10ZM26 26H14V14H26V26Z" fill="white"/>
</svg>
