<svg width="32" height="22" viewBox="0 0 32 22" fill="none" xmlns="http://www.w3.org/2000/svg">
<path d="M25.8906 9.08505C25.4831 6.51131 24.3875 4.31007 22.6963 2.68133C20.8977 0.950962 18.4958 -0.0107705 16 9.10085e-05C13.7812 9.10085e-05 11.735 0.730713 10.0825 2.11258C8.81963 3.1777 7.84729 4.54548 7.25625 6.08819C5.365 6.38881 3.66563 7.16194 2.42 8.29881C0.836875 9.74255 0 11.7138 0 14C0 16.25 0.89875 18.305 2.53063 19.7869C4.1025 21.2144 6.2225 22 8.5 22H24.75C26.7731 22 28.5144 21.4644 29.7869 20.4519C31.235 19.2988 32 17.5869 32 15.5C32 11.6344 28.9725 9.5413 25.8906 9.08505ZM13.1012 17.5225L8.775 12.7288L10.26 11.3888L13.0487 14.48L19.6919 6.59256L21.2213 7.88068L13.1012 17.5225Z" fill="white"/>
</svg>
