<svg width="39" height="31" viewBox="0 0 39 31" fill="none" xmlns="http://www.w3.org/2000/svg">
<path d="M38.8947 13.1083L33.8954 1.27788C33.6867 0.783901 33.2023 0.462708 32.666 0.462708H6.33384C5.79751 0.462708 5.31332 0.783901 5.10441 1.27788L0.10518 13.1083C-0.0690291 13.5202 -0.0248984 13.9923 0.222269 14.3651C0.469615 14.7381 0.887255 14.9621 1.33461 14.9621H2.95998V29.2025C2.95998 29.9397 3.55752 30.5371 4.29457 30.5371H34.7055C35.4425 30.5371 36.04 29.9397 36.04 29.2025V14.9621H37.6652C38.1126 14.9621 38.5302 14.7379 38.7776 14.3651C39.0249 13.9923 39.0689 13.5202 38.8947 13.1083ZM27.2319 25.6779V17.2998H31.8402V25.6779H27.2319ZM7.45224 25.6261V17.3514H12.0276V25.6261H7.45224ZM14.697 17.3514H19.2725V25.6261H14.697V17.3514Z" fill="white"/>
</svg>
