<svg width="37" height="27" viewBox="0 0 37 27" fill="none" xmlns="http://www.w3.org/2000/svg">
<path d="M18.5 26.7589C20.845 26.7589 22.7459 24.8579 22.7459 22.5129C22.7459 20.1679 20.845 18.2669 18.5 18.2669C16.155 18.2669 14.254 20.1679 14.254 22.5129C14.254 24.8579 16.155 26.7589 18.5 26.7589Z" fill="white"/>
<path d="M18.5 8.88733C13.2988 8.88733 8.60797 11.9745 6.5496 16.7525C6.0436 17.9273 6.5856 19.2897 7.76022 19.7957C8.93501 20.3018 10.2974 19.76 10.8034 18.5852C12.1293 15.5079 15.1504 13.5193 18.5 13.5193C21.8495 13.5193 24.8706 15.5079 26.1965 18.5852C26.5739 19.4612 27.4275 19.9855 28.3245 19.9855C28.6304 19.9855 28.9413 19.9247 29.2398 19.7957C30.4147 19.2898 30.9564 17.9273 30.4505 16.7525C28.392 11.9745 23.7011 8.88733 18.5 8.88733Z" fill="white"/>
<path d="M36.6207 10.0387C32.5992 3.90379 25.8251 0.24115 18.5 0.24115C11.1749 0.24115 4.40071 3.90379 0.37926 10.0387C-0.322026 11.1085 -0.0231378 12.544 1.04652 13.2453C1.438 13.5019 1.87848 13.6246 2.314 13.6246C3.06862 13.6246 3.80853 13.2563 4.25307 12.5779C7.41558 7.75341 12.7414 4.87292 18.5 4.87292C24.2585 4.87292 29.5844 7.75332 32.7469 12.5779C33.4481 13.6475 34.8837 13.9465 35.9535 13.2452C37.0231 12.544 37.3219 11.1085 36.6207 10.0387Z" fill="white"/>
</svg>
