<svg width="39" height="39" viewBox="0 0 39 39" fill="none" xmlns="http://www.w3.org/2000/svg">
<path d="M15.75 36.375V34.125C15.75 33.525 15.225 33 14.625 33H7.125C6.525 33 6 32.475 6 31.875V7.125C6 6.525 6.525 6 7.125 6H14.625C15.225 6 15.75 5.475 15.75 4.875V2.625C15.75 2.025 15.225 1.5 14.625 1.5H4.5C2.85 1.5 1.5 2.85 1.5 4.5V34.5C1.5 36.15 2.85 37.5 4.5 37.5H14.625C15.225 37.5 15.75 36.975 15.75 36.375Z" fill="white"/>
<path d="M37.2 20.25C37.65 19.8 37.65 19.125 37.2 18.675L27.075 8.55002C26.625 8.10002 25.95 8.10002 25.5 8.55002L23.925 10.125C23.475 10.575 23.475 11.25 23.925 11.7L28.125 15.9C28.575 16.35 28.275 17.175 27.6 17.175H11.625C11.025 17.175 10.5 17.625 10.5 18.225V20.475C10.5 21.075 11.025 21.675 11.625 21.675H27.525C28.2 21.675 28.5 22.5 28.05 22.95L23.85 27.15C23.4 27.6 23.4 28.275 23.85 28.725L25.425 30.3C25.875 30.75 26.55 30.75 27 30.3L37.2 20.25Z" fill="white"/>
</svg>
