<svg width="22" height="22" viewBox="0 0 22 22" fill="none" xmlns="http://www.w3.org/2000/svg">
<path d="M17.7497 1.37801L17.7507 1.37696L11.0001 8.12761L4.26213 1.38967C3.70759 0.835134 2.79493 0.820487 2.2404 1.37502L1.37661 2.2388C0.82223 2.79319 0.834935 3.70779 1.38947 4.26233L8.12741 11.0003L1.37691 17.7508C0.822677 18.305 0.819838 19.2047 1.37452 19.7593L2.24324 20.6281C2.79747 21.1823 3.69504 21.1777 4.24942 20.6233L11.0001 13.8726L17.7624 20.6349C18.3166 21.1892 19.2069 21.1778 19.7614 20.6233L20.6252 19.7595C21.1797 19.205 21.1891 18.3164 20.635 17.7623L13.8727 11L20.6222 4.25052C21.1767 3.69598 21.1821 2.79737 20.628 2.24329L19.7593 1.37457C19.2046 0.819888 18.3042 0.823475 17.7497 1.37801Z" fill="white"/>
</svg>
