<svg width="31" height="37" viewBox="0 0 31 37" fill="none" xmlns="http://www.w3.org/2000/svg">
<path d="M13.7778 22.9048V37H0C0 33.2617 1.45158 29.6765 4.03542 27.0332C6.61925 24.3898 10.1237 22.9048 13.7778 22.9048V22.9048ZM13.7778 21.1429C8.06861 21.1429 3.44444 16.4121 3.44444 10.5714C3.44444 4.73071 8.06861 0 13.7778 0C19.4869 0 24.1111 4.73071 24.1111 10.5714C24.1111 16.4121 19.4869 21.1429 13.7778 21.1429ZM29.2778 28.1905H31V37H17.2222V28.1905H18.9444V26.4286C18.9444 25.0267 19.4888 23.6823 20.4577 22.691C21.4267 21.6997 22.7408 21.1429 24.1111 21.1429C25.4814 21.1429 26.7956 21.6997 27.7645 22.691C28.7334 23.6823 29.2778 25.0267 29.2778 26.4286V28.1905ZM25.8333 28.1905V26.4286C25.8333 25.9613 25.6519 25.5131 25.3289 25.1827C25.0059 24.8523 24.5679 24.6667 24.1111 24.6667C23.6543 24.6667 23.2163 24.8523 22.8933 25.1827C22.5703 25.5131 22.3889 25.9613 22.3889 26.4286V28.1905H25.8333Z" fill="white"/>
</svg>
