<svg width="33" height="33" viewBox="0 0 33 33" fill="none" xmlns="http://www.w3.org/2000/svg">
<path d="M1.39494 18.993L3.55765 19.0065C3.88105 20.6706 4.5211 22.2876 5.49129 23.7564L3.95516 25.279C3.40269 25.8248 3.40269 26.7074 3.94169 27.2598L5.59909 28.9374C6.14482 29.4899 7.02742 29.4899 7.57989 28.9509L9.11602 27.4283C10.5713 28.4119 12.1815 29.0789 13.8457 29.4158L13.8322 31.5785C13.8255 32.3533 14.4521 32.9799 15.2269 32.9866L17.585 33.0001C18.3598 33.0068 18.9863 32.3803 18.9931 31.6055L19.0065 29.4427C20.6707 29.1194 22.2877 28.4793 23.7564 27.5091L25.2791 29.0452C25.8248 29.5977 26.7074 29.5977 27.2599 29.0587L28.9375 27.4013C29.49 26.8556 29.49 25.973 28.951 25.4205L27.4283 23.8844C28.412 22.4291 29.079 20.8189 29.4159 19.1547L31.5786 19.1682C32.3534 19.1749 32.9799 18.5483 32.9867 17.7735L33.0002 15.4154C33.0069 14.6406 32.3803 14.0141 31.6055 14.0073L29.4428 13.9939C29.1194 12.3297 28.4794 10.7127 27.5092 9.24397L29.0453 7.72132C29.5978 7.17559 29.5978 6.29298 29.0588 5.74052L27.4014 4.0629C26.8556 3.51043 25.973 3.51043 25.4206 4.04942L23.8844 5.57208C22.4292 4.58842 20.8189 3.92141 19.1548 3.58454L19.1682 1.42183C19.175 0.647029 18.5484 0.0204492 17.7736 0.0137118L15.4155 0.000236935C14.6407 -0.00650048 14.0141 0.620079 14.0074 1.39488L13.9872 3.55759C12.3163 3.88099 10.6993 4.52104 9.2373 5.49123L7.71464 3.9551C7.16891 3.40263 6.28631 3.40263 5.73384 3.94163L4.06296 5.59903C3.51049 6.14476 3.51049 7.02736 4.04949 7.57983L5.57214 9.11596C4.58848 10.5712 3.92147 12.1815 3.5846 13.8456L1.42189 13.8322C0.64709 13.8254 0.0205102 14.452 0.0137728 15.2268L0.00029797 17.5849C-0.00643945 18.353 0.62014 18.9863 1.39494 18.993ZM12.0805 12.0333C14.5464 9.59432 18.5147 9.61453 20.9537 12.0804C23.3926 14.5463 23.3724 18.5147 20.9065 20.9536C18.4406 23.3925 14.4723 23.3723 12.0333 20.9064C9.59438 18.4405 9.61459 14.4722 12.0805 12.0333Z" fill="white"/>
</svg>
