<svg width="40" height="34" viewBox="0 0 40 34" fill="none" xmlns="http://www.w3.org/2000/svg">
<path d="M39.1812 9.95644H38.9082V9.07691C38.9082 7.53856 37.6565 6.28674 36.118 6.28674H34.3099C33.6302 2.91466 30.6511 0.374573 27.0787 0.374573H12.9206C9.3481 0.374573 6.3692 2.91466 5.68948 6.28674H3.88198C2.34354 6.28674 1.09181 7.53847 1.09181 9.07691V9.95652H0.818836C0.366295 9.95652 0 10.3228 0 10.7754V16.5792C0 17.0318 0.366295 17.3981 0.818836 17.3981H3.15005C3.60243 17.3981 3.96889 17.0318 3.96889 16.5792V10.7754C3.96889 10.3228 3.60251 9.95652 3.15005 9.95652H2.87716V9.07691C2.87716 8.52322 3.32837 8.07193 3.88198 8.07193H5.54254V25.4788C5.54254 27.3129 7.02937 28.7999 8.86367 28.7999H9.46839V30.5276C9.46839 32.2385 10.8553 33.6255 12.5662 33.6255C14.277 33.6255 15.6639 32.2385 15.6639 30.5276V28.7999H24.3363V30.5276C24.3363 32.2385 25.7232 33.6255 27.4341 33.6255C29.1449 33.6255 30.5319 32.2385 30.5319 30.5276V28.7999H31.1358C32.97 28.7999 34.457 27.313 34.457 25.4788V8.07185H36.1182C36.672 8.07185 37.1232 8.52314 37.1232 9.07683V9.95644H36.8502C36.3977 9.95644 36.0314 10.3227 36.0314 10.7753V16.5791C36.0314 17.0318 36.3977 17.398 36.8502 17.398H39.1812C39.6338 17.398 40.0001 17.0318 40.0001 16.5791V10.7753C40 10.3227 39.6337 9.95644 39.1812 9.95644ZM12.5648 26.6587C11.2829 26.6587 10.2421 25.619 10.2421 24.336C10.2421 23.0529 11.2829 22.0133 12.5648 22.0133C13.8479 22.0133 14.8874 23.0529 14.8874 24.336C14.8875 25.619 13.8479 26.6587 12.5648 26.6587ZM11.4952 19.3634C10.7612 19.3634 10.1663 18.7686 10.1663 18.0347V7.63121C10.1663 5.79699 11.6533 4.31008 13.4873 4.31008H18.8092V19.3633H11.4952V19.3634ZM27.434 26.6587C26.1522 26.6587 25.1125 25.619 25.1125 24.336C25.1125 23.0529 26.1521 22.0133 27.434 22.0133C28.717 22.0133 29.7573 23.0529 29.7573 24.336C29.7573 25.619 28.717 26.6587 27.434 26.6587ZM29.833 18.0347C29.833 18.7686 29.2382 19.3634 28.5041 19.3634H21.1901V4.31016H26.5119C28.3462 4.31016 29.8331 5.79699 29.8331 7.63129V18.0347H29.833Z" fill="white"/>
</svg>
